<?xml version="1.0" encoding="utf-8"?>
<!-- Generator: Adobe Illustrator 24.3.0, SVG Export Plug-In . SVG Version: 6.00 Build 0)  -->
<svg version="1.1" id="Capa_1" xmlns="http://www.w3.org/2000/svg" xmlns:xlink="http://www.w3.org/1999/xlink" x="0px" y="0px"
	 viewBox="0 0 1071 571" style="enable-background:new 0 0 1071 571;" xml:space="preserve">
<style type="text/css">
	.st0{fill:#8F2C10;}
</style>
<path d="M23.9,109.5V10.6H74c9.9,0,17.3,2.3,22.2,7c4.9,4.7,7.3,11.2,7.3,19.7c0,5.3-1,9.8-3.1,13.3c-2,3.5-4.8,6.3-8.3,8.2
	c4.6,1.4,8.3,3.8,11,7.1c2.7,3.3,4.1,8.2,4.1,14.7c0,9.5-2.7,16.7-8.1,21.6c-5.4,4.9-13.1,7.3-23.3,7.3H23.9z M44.7,51.6h25.5
	c5,0,8.6-1.1,10.8-3.3c2.1-2.2,3.2-5.3,3.2-9.3c0-4.4-1.1-7.7-3.3-9.8C78.7,27,74.5,26,68.7,26h-24V51.6z M44.7,94.3H71
	c5.2,0,9.1-1.1,11.5-3.2c2.5-2.2,3.7-5.9,3.7-11.4c0-4.4-1.2-7.7-3.6-9.8c-2.4-2.2-6.7-3.2-13-3.2H44.7V94.3z"/>
<path d="M121.7,109.5V10.6h20.7v98.9H121.7z"/>
<path d="M159.8,109.5V10.6h71v16.1h-50.2V52h44.5v16h-44.5v25.5h50.2v16H159.8z"/>
<path d="M245.2,109.5V10.6h18L310,76.5V10.6h20.7v98.9h-18L266,43.6v65.9H245.2z"/>
<path d="M380.8,109.5L343,10.6h21.7L392,86.3l27.5-75.7h21.7l-37.6,98.9H380.8z"/>
<path d="M451.6,109.5V10.6h71v16.1h-50.2V52H517v16h-44.5v25.5h50.2v16H451.6z"/>
<path d="M537.1,109.5V10.6h18l46.8,65.9V10.6h20.7v98.9h-18l-46.8-65.9v65.9H537.1z"/>
<path d="M640.2,109.5V10.6h20.7v98.9H640.2z"/>
<path d="M678.4,109.5V10.6h41.5c14.8,0,26,3.8,33.6,11.4c7.5,7.6,11.3,20.5,11.3,38.5c0,17-3.7,29.4-11.1,37.2
	c-7.4,7.8-18.7,11.7-33.7,11.7h-41.6V109.5z M699.1,93.6h17.8c5.8,0,10.8-0.9,14.7-2.7c4-1.8,7-5.1,9-9.8c2-4.8,3-11.6,3-20.5
	s-0.9-15.7-2.8-20.4c-1.8-4.7-4.7-7.9-8.6-9.7c-3.9-1.7-9-2.6-15.4-2.6H699L699.1,93.6L699.1,93.6z"/>
<path d="M824.1,111.1c-32,0-48.1-16.8-48.1-50.5c0-18.1,4-31.2,12.1-39.3S808.2,9.2,824,9.2c15.9,0,27.8,4,35.9,12.1
	c8.3,8,12.3,21.1,12.3,39.2C872.2,94.2,856.2,111.1,824.1,111.1z M824.1,93.4c9.3,0,16.1-2.7,20.5-8.1s6.5-13.6,6.5-24.8
	c0-12.4-2.2-21.1-6.5-26.2c-4.4-5.1-11.2-7.6-20.5-7.6s-16.2,2.5-20.5,7.6c-4.4,5.1-6.5,13.8-6.5,26.2c0,11.2,2.2,19.4,6.5,24.8
	C808,90.7,814.8,93.4,824.1,93.4z"/>
<path d="M883.6,109.5L919.5,7.8h21.2l-35.9,101.7H883.6z"/>
<path d="M952.1,109.5l37.8-98.9h22.7l37.6,98.9h-21.5l-9.4-23.8h-36.4l-9.2,23.8H952.1z M986,69.8h30.3L1001.1,30L986,69.8z"/>
<path d="M20.2,287.1L58,188.2h22.7l37.6,98.9H96.9l-9.4-23.8H51.1l-9.2,23.8H20.2z M54.2,247.3h30.3l-15.2-39.8L54.2,247.3z"/>
<path class="st0" d="M216.4,533.9v-3.3c1.8,0,3.9-0.1,6.2-0.3c2.4-0.2,5-0.5,8-0.8c3-0.3,5.3-1.4,6.8-3.1c1.6-1.7,2.6-4.8,3-9.2
	l0.4-9.5v-98.4l-0.4-9.5c-0.4-4.4-1.5-7.5-3.1-9.3c-1.7-1.8-4-2.9-7-3.3s-5.7-0.7-8.1-0.7c-2.4-0.1-4.6-0.2-6.5-0.3V383l77.4-0.4
	c16.2,0,31.4,1.5,45.8,4.6c14.3,3,27.5,10.8,39.6,23.2c12.1,12.5,18.2,30,18.2,52.7c0,21.7-5.4,37.7-16.3,48s-22.3,16.7-34.4,19.3
	s-26.2,3.8-42.2,3.8h-87.4V533.9z M313.9,388.6c-1.9-0.8-4.9-1.4-9-1.7c-4.1-0.3-7.6-0.4-10.5-0.4h-2.5v143.4c1,0,1.9,0,2.7,0.1
	c0.8,0.1,1.9,0.1,3.1,0.1c5.3,0,10.1-0.3,14.4-1c4.4-0.7,8.4-2.5,12.2-5.3c3.8-2.8,7.5-10.4,11-22.6s5.3-24.8,5.3-37.7
	c0-18-2.2-34.1-6.5-48.2C329.8,401.1,323.1,392.2,313.9,388.6z"/>
<g>
	<path d="M26.1,533.9V365.9h36.5c12.5,0,22.3,1.9,29.6,5.7c7.3,3.8,12.5,9.5,15.6,17.1s4.7,17.1,4.7,28.4v61.8
		c0,11.9-1.6,21.9-4.7,30.1s-8.2,14.4-15.1,18.6c-7,4.2-16.4,6.3-28.1,6.3L26.1,533.9L26.1,533.9z M49.6,517.2h13.3
		c8.6,0,14.7-1.7,18.3-5c3.6-3.3,5.8-8.2,6.5-14.5c0.8-6.4,1.1-14,1.1-23V420c0-8.7-0.6-15.8-1.7-21.2c-1.1-5.4-3.5-9.3-7.3-11.8
		c-3.7-2.5-9.6-3.7-17.6-3.7H49.6V517.2z"/>
	<path d="M155.2,535.7c-4.7,0-8.9-1.3-12.5-4c-3.6-2.7-6.4-6.2-8.5-10.4c-2.1-4.2-3.1-8.7-3.1-13.4c0-7.5,1.2-13.8,3.7-18.9
		s5.9-9.4,10.3-13c4.4-3.5,9.4-6.6,15.1-9.2c5.7-2.6,11.8-5.2,18.2-7.7v-8.5c0-4.8-0.3-8.9-0.8-12c-0.6-3.2-1.7-5.6-3.4-7.2
		s-4.3-2.4-7.8-2.4c-3,0-5.5,0.7-7.4,2.1s-3.2,3.4-4,5.9c-0.8,2.6-1.2,5.6-1.2,9v6l-22-0.8c0.3-13.3,3.3-23.1,9.1-29.4
		s14.8-9.4,27-9.4c11.9,0,20.3,3.3,25.3,9.8s7.5,15.9,7.5,28.2v54.8c0,3.7,0.1,7.3,0.3,10.8s0.5,6.7,0.8,9.6c0.3,3,0.7,5.8,0.9,8.4
		h-20.3c-0.4-2.2-0.9-5-1.6-8.4c-0.6-3.4-1.1-6.5-1.3-9.2c-1.4,4.7-4,9.1-8,13.2C167.5,533.6,162.1,535.7,155.2,535.7z M163.9,516.6
		c2.2,0,4.3-0.6,6.2-1.9c1.9-1.2,3.7-2.7,5.2-4.3c1.5-1.6,2.6-2.9,3.1-3.8v-34c-3.5,1.9-6.7,3.9-9.8,5.8c-3,1.9-5.7,4-8,6.1
		s-4.1,4.6-5.4,7.3c-1.3,2.7-2,5.8-2,9.2c0,4.8,0.9,8.6,2.7,11.4C157.8,515.2,160.4,516.6,163.9,516.6z"/>
	<path d="M438.9,535.7c-4.7,0-8.9-1.3-12.5-4c-3.6-2.7-6.4-6.2-8.5-10.4c-2.1-4.2-3.1-8.7-3.1-13.4c0-7.5,1.2-13.8,3.7-18.9
		s5.9-9.4,10.3-13c4.4-3.5,9.4-6.6,15.1-9.2s11.8-5.2,18.2-7.7v-8.5c0-4.8-0.3-8.9-0.8-12c-0.6-3.2-1.7-5.6-3.4-7.2
		c-1.7-1.6-4.3-2.4-7.8-2.4c-3,0-5.5,0.7-7.4,2.1s-3.2,3.4-4,5.9c-0.8,2.6-1.2,5.6-1.2,9v6l-22-0.8c0.3-13.3,3.3-23.1,9.1-29.4
		c5.8-6.3,14.8-9.4,27-9.4c11.9,0,20.3,3.3,25.3,9.8s7.5,15.9,7.5,28.2v54.8c0,3.7,0.1,7.3,0.3,10.8c0.2,3.5,0.5,6.7,0.8,9.6
		c0.3,3,0.7,5.8,0.9,8.4h-20.3c-0.4-2.2-0.9-5-1.6-8.4c-0.6-3.4-1.1-6.5-1.3-9.2c-1.4,4.7-4,9.1-8,13.2
		C451.2,533.6,445.8,535.7,438.9,535.7z M447.6,516.6c2.2,0,4.3-0.6,6.2-1.9c1.9-1.2,3.7-2.7,5.2-4.3c1.5-1.6,2.6-2.9,3.1-3.8v-34
		c-3.5,1.9-6.7,3.9-9.8,5.8c-3,1.9-5.7,4-8,6.1s-4.1,4.6-5.4,7.3c-1.3,2.7-2,5.8-2,9.2c0,4.8,0.9,8.6,2.7,11.4
		C441.5,515.2,444.1,516.6,447.6,516.6z"/>
	<path d="M506.3,533.9V414h22.2v17c4.4-7.3,8.9-12.2,13.3-14.7c4.4-2.5,8.9-3.7,13.3-3.7c0.6,0,1.1,0,1.6,0s1.1,0.1,2,0.2v24.5
		c-1.7-0.7-3.6-1.3-5.7-1.8c-2.1-0.5-4.3-0.7-6.5-0.7c-3.5,0-6.6,0.8-9.4,2.4c-2.8,1.6-5.6,4.7-8.4,9.2V534L506.3,533.9L506.3,533.9
		z"/>
	<path d="M604.3,535.7c-6.2,0-11.2-1.2-15-3.5c-3.8-2.4-6.6-5.7-8.3-10c-1.7-4.3-2.6-9.3-2.6-15.1v-78.2h-12.7v-14.7h12.6V379h22.2
		v35.1h19.3v14.7h-19.3v76.8c0,4.7,0.8,8.1,2.3,10.1s4.4,3,8.7,3c1.1,0,2.4-0.1,3.8-0.2c1.5-0.1,2.9-0.3,4.3-0.4v16.4
		c-2.8,0.4-5.3,0.7-7.7,0.9C609.6,535.6,607,535.7,604.3,535.7z"/>
</g>
</svg>
